PathFileType	4	(X/Y/Z)	s01c0401.trc
DataRate	CameraRate	NumFrames	NumMarkers	Units	OrigDataRate	OrigDataStartFrame	OrigNumFrames
200	200	4	48	mm	200	1750	2000
Frame#	Time	racr			lacr			c7			jug			rlel			rdr			llel			ldr			s2			lic			ric			lasi			rasi			rpsi			lpsi			rgt			lgt			rth1			rth2			rth3			rth4			rlfc			rsh1			rsh2			rsh3			rsh4			rlmal			rmmal			rcal			rtoe			rmt5			lth1			lth2			lth4			lth3			llfc			lsh1			lsh2			lsh3			lsh4			llmal			lmmal			lcal			ltoe			lmt5			SBIKE			LBIKE			RBIKE			
		X1	Y1	Z1	X2	Y2	Z2	X3	Y3	Z3	X4	Y4	Z4	X5	Y5	Z5	X6	Y6	Z6	X7	Y7	Z7	X8	Y8	Z8	X9	Y9	Z9	X10	Y10	Z10	X11	Y11	Z11	X12	Y12	Z12	X13	Y13	Z13	X14	Y14	Z14	X15	Y15	Z15	X16	Y16	Z16	X17	Y17	Z17	X18	Y18	Z18	X19	Y19	Z19	X20	Y20	Z20	X21	Y21	Z21	X22	Y22	Z22	X23	Y23	Z23	X24	Y24	Z24	X25	Y25	Z25	X26	Y26	Z26	X27	Y27	Z27	X28	Y28	Z28	X29	Y29	Z29	X30	Y30	Z30	X31	Y31	Z31	X32	Y32	Z32	X33	Y33	Z33	X34	Y34	Z34	X35	Y35	Z35	X36	Y36	Z36	X37	Y37	Z37	X38	Y38	Z38	X39	Y39	Z39	X40	Y40	Z40	X41	Y41	Z41	X42	Y42	Z42	X43	Y43	Z43	X44	Y44	Z44	X45	Y45	Z45	X46	Y46	Z46	X47	Y47	Z47	X48	Y48	Z48	
1750	8.7500	722.907715	1281.497070	-36.600273	734.174561	1248.252686	-419.915588	748.952087	1360.622925	-221.368088	707.645874	1199.620239	-218.663147	560.815796	1059.639771	70.572739	704.506226	888.761658	-23.320770	556.175964	1055.170410	-550.906189	695.525574	884.560608	-451.338379	194.587433	1228.020020	-232.170853	364.837891	1218.208252	-398.001404	347.069214	1197.643555	-71.075073	359.415741	1159.514893	-375.147675	365.121857	1148.432373	-105.054680	231.316742	1257.595459	-177.577377	231.535980	1267.019409	-282.247375	275.985779	1087.036865	-51.993847	293.315857	1089.738037	-429.758820	340.661560	964.232178	-41.251240	385.981171	895.156067	-49.284367	430.074310	817.820740	-66.204849	433.526337	923.536804	-62.622295	463.820953	710.876709	-90.127815	408.813843	603.590210	-57.963428	381.842804	523.344727	-64.099785	345.085724	442.981781	-75.303230	424.460938	509.184967	-104.522087	281.816620	334.795319	-94.413513	323.033813	341.255005	-174.098328	233.153214	320.742035	-148.823959	488.271820	227.047165	-131.446808	378.857361	227.102142	-63.415619	349.005066	972.146057	-447.811493	413.245850	913.367310	-441.120453	451.067169	952.469849	-427.754791	468.671600	849.374756	-425.191681	510.065765	755.199707	-407.415192	401.169678	718.523132	-439.006439	328.266510	672.541870	-435.123077	254.577347	629.090027	-424.838684	359.330811	625.516357	-408.857452	149.914444	570.806580	-413.881744	169.304306	551.024902	-334.307861	100.053093	595.148865	-372.281769	205.437653	339.016144	-369.469879	141.793472	421.428986	-439.353241	-270.640167	878.102844	-265.316742	-11.914495	84.673119	-453.541809	-20.214996	81.043907	-53.602371	
1751	8.7550	723.665710	1282.021484	-37.953709	733.238220	1248.433350	-420.693298	748.772156	1360.723389	-222.378647	707.635803	1200.030518	-219.322937	562.147461	1059.925293	70.198364	704.955688	888.936584	-23.055199	555.121826	1054.745728	-550.634094	695.341492	884.613220	-451.253693	194.570984	1227.662354	-230.025085	363.929871	1218.570801	-396.911438	347.704987	1195.885254	-70.423439	358.754486	1159.740967	-373.990814	365.114288	1146.368408	-104.170441	231.538803	1256.740234	-175.287521	231.234146	1266.792603	-280.034027	275.012115	1084.896240	-51.410160	292.769958	1091.431274	-429.234283	336.687531	960.802673	-40.505386	380.000763	890.546509	-48.997116	421.848572	812.061584	-66.250931	428.357910	917.572021	-62.016907	453.940765	704.445068	-89.721550	400.218719	596.918579	-57.653862	374.223450	516.422729	-63.927677	338.633484	435.566101	-75.187195	417.083130	502.830627	-104.381882	276.414612	327.118103	-94.764565	316.769989	333.147797	-174.247864	228.262192	313.768463	-149.495865	482.282501	217.447662	-131.541565	372.879486	218.749008	-63.520046	350.532837	975.089172	-446.991669	416.451080	917.992493	-441.225464	453.353271	957.844543	-427.317383	473.534424	855.347412	-425.917938	517.011658	761.951599	-407.872498	407.562775	726.047119	-439.191040	334.286530	680.457886	-435.044983	259.950806	638.036804	-424.910522	365.063751	633.205200	-409.479980	155.265762	579.618896	-413.617432	175.052948	559.967773	-333.836365	104.827599	603.469421	-371.995789	212.254013	348.223328	-369.366180	147.949677	430.215515	-439.204041	-270.704773	878.122620	-265.351013	-11.915649	84.676270	-453.543060	-20.219902	81.042595	-53.591923	
1752	8.7600	724.377075	1282.209351	-40.981228	732.229919	1248.572144	-421.490356	748.506287	1360.799438	-223.381683	707.673035	1200.313843	-220.059128	563.466980	1060.315918	69.850037	705.498108	889.154907	-22.658060	554.020020	1054.353516	-550.400024	695.359985	884.834778	-450.967194	194.507034	1227.289917	-227.838486	362.985596	1218.846802	-395.815613	348.399628	1193.995483	-69.846146	358.026794	1159.967896	-372.878510	365.103088	1144.185547	-103.392288	231.679520	1255.890381	-172.870255	230.917480	1266.503662	-277.794434	274.054779	1082.685425	-50.773045	292.148773	1093.172852	-428.723877	332.700470	957.571472	-39.742599	374.016327	886.214539	-48.567162	413.624603	806.606323	-66.091789	423.207947	911.916443	-61.338669	444.102417	698.305359	-89.147476	391.743408	590.690857	-57.299038	366.648987	509.877533	-63.698025	331.986755	428.632599	-75.014748	409.503510	496.900452	-104.055908	270.876862	320.112030	-95.047493	310.957458	325.831879	-174.073883	222.966217	307.773956	-149.021912	475.900970	208.115952	-131.613846	366.509552	210.752258	-63.721916	351.939911	978.117920	-446.200867	419.437164	922.691833	-441.359985	455.311371	963.331787	-426.993622	478.044189	861.259033	-426.636200	523.800476	768.453308	-408.420990	413.970490	733.631348	-439.449860	340.295166	688.683899	-435.235718	265.278900	646.750488	-425.183868	370.911835	640.827454	-410.086670	160.856934	588.049316	-413.399750	180.980881	568.592285	-333.313385	109.819473	611.411011	-371.783417	219.526337	357.109772	-369.128754	154.515610	438.635559	-439.043304	-270.728119	878.127686	-265.308716	-11.919924	84.677322	-453.547180	-20.224333	81.049385	-53.593094	
1753	8.7650	725.075500	1283.114136	-40.811031	731.192200	1248.698730	-422.318878	748.174194	1360.847168	-224.445908	707.681458	1200.533325	-220.882751	564.709045	1060.804199	69.532280	706.038269	889.255676	-22.106567	552.929382	1053.893311	-550.120972	695.198364	884.877563	-450.852661	194.438324	1226.830811	-225.594055	362.005615	1219.007446	-394.726166	349.077179	1192.044800	-69.447922	357.193481	1160.106689	-371.860992	365.083771	1141.890991	-102.725922	231.879776	1254.952881	-170.441269	230.543823	1266.154785	-275.595947	273.131653	1080.441284	-50.140293	291.233917	1094.950684	-428.607910	328.792847	954.664001	-38.942772	368.284485	882.140259	-47.996296	405.637299	801.744934	-65.535843	417.844727	906.799316	-60.668930	434.581055	692.586609	-88.484024	383.325989	584.996948	-56.816803	359.126221	503.928162	-63.353783	325.260315	422.321045	-74.796425	402.093750	491.413666	-103.683746	265.047058	313.587982	-95.552124	305.236877	319.197235	-173.727066	217.606140	302.191071	-149.230469	468.913696	199.353683	-130.914993	359.599182	203.221191	-63.873882	353.352905	981.179810	-445.511444	422.162048	927.391785	-441.384186	457.170654	968.653809	-426.652618	482.335510	867.283691	-427.209930	530.139404	775.219421	-409.215820	420.381012	741.242615	-439.762207	346.473511	696.772522	-435.452911	270.652435	655.499939	-425.658051	376.956207	648.520142	-410.771698	166.669098	596.064392	-413.223907	186.989151	576.881287	-332.958679	114.964622	618.831909	-371.600067	227.501678	365.895111	-369.033081	161.522552	446.630951	-438.886139	-270.794281	878.103516	-265.210876	-11.919736	84.680923	-453.550110	-20.220871	81.046364	-53.592289	
